HIERARCHY
ROOT Hips
{
	OFFSET 0.00000 0.00000 0.00000
	CHANNELS 6 Xposition Yposition Zposition Zrotation Yrotation Xrotation 
	JOINT LHipJoint
	{
		OFFSET 0 0 0
		CHANNELS 3 Zrotation Yrotation Xrotation
		JOINT LeftHip
		{
			OFFSET 1.59801 -1.77853 0.57028
			CHANNELS 3 Zrotation Yrotation Xrotation
			JOINT LeftKnee
			{
				OFFSET 2.39439 -6.57854 0.00000
				CHANNELS 3 Zrotation Yrotation Xrotation
				JOINT LeftAnkle
				{
					OFFSET 2.69334 -7.39989 0.00000
					CHANNELS 3 Zrotation Yrotation Xrotation
					JOINT LeftToe
					{
						OFFSET 0.09553 -0.26245 1.73747
						CHANNELS 3 Zrotation Yrotation Xrotation
						End Site
						{
							OFFSET 0.00000 -0.00000 0.89391
						}
					}
				}
			}
		}
	}
	JOINT RHipJoint
	{
		OFFSET 0 0 0
		CHANNELS 3 Zrotation Yrotation Xrotation
		JOINT RightHip
		{
			OFFSET -1.54704 -1.77852 0.57028
			CHANNELS 3 Zrotation Yrotation Xrotation
			JOINT RightKnee
			{
				OFFSET -2.40286 -6.60180 0.00000
				CHANNELS 3 Zrotation Yrotation Xrotation
				JOINT RightAnkle
				{
					OFFSET -2.63873 -7.24984 0.00000
					CHANNELS 3 Zrotation Yrotation Xrotation
					JOINT RightToe
					{
						OFFSET -0.15631 -0.42945 1.84436
						CHANNELS 3 Zrotation Yrotation Xrotation
						End Site
						{
							OFFSET -0.00000 -0.00000 0.95734
						}
					}
				}
			}
		}
	}
	JOINT lowerback
	{
		OFFSET 0 0 0
		CHANNELS 3 Zrotation Yrotation Xrotation
		JOINT Chest
		{
			OFFSET -0.00436 1.89866 -0.04018
			CHANNELS 3 Zrotation Yrotation Xrotation
			JOINT Chest2
			{
				OFFSET 0.02031 1.88273 0.09634
				CHANNELS 3 Zrotation Yrotation Xrotation
				JOINT lowerneck
				{
					OFFSET 0 0 0
					CHANNELS 3 Zrotation Yrotation Xrotation
					JOINT Neck
					{
						OFFSET -0.13105 1.89371 0.23083
						CHANNELS 3 Zrotation Yrotation Xrotation
						JOINT Head
						{
							OFFSET 0.17062 1.83990 -0.54062
							CHANNELS 3 Zrotation Yrotation Xrotation
							End Site
							{
								OFFSET 0.04576 1.94782 -0.21839
							}
						}
					}
				}
				JOINT LeftCollar
				{
					OFFSET 0 0 0
					CHANNELS 3 Zrotation Yrotation Xrotation
					JOINT LeftShoulder
					{
						OFFSET 3.12424 1.09204 0.22226
CHANNELS 3 Zrotation Xrotation Yrotation
						JOINT LeftElbow
						{
OFFSET 0 -5.292770 0.000000
CHANNELS 3 Zrotation Xrotation Yrotation
							JOINT LeftWrist
							{
OFFSET 0 -2.852260 0.000000
CHANNELS 3 Zrotation Xrotation Yrotation
								JOINT lhand
								{
									OFFSET 0 0 0
CHANNELS 3 Zrotation Xrotation Yrotation
									JOINT LFingers
									{
OFFSET 0 -0.602100 0.000000
CHANNELS 3 Zrotation Xrotation Yrotation
										End Site
										{
OFFSET 0 -0.485430 0.000000
										}
									}
								}
								JOINT LThumb
								{
OFFSET 0 0.000000 0.000000
CHANNELS 3 Zrotation Xrotation Yrotation
									End Site
									{
OFFSET 0 -0.492840 0.492840
									}
								}
							}
						}
					}
				}
				JOINT RightCollar
				{
					OFFSET 0 0 0
					CHANNELS 3 Zrotation Yrotation Xrotation
					JOINT RightShoulder
					{
						OFFSET -2.91709 1.01504 0.30199
CHANNELS 3 Zrotation Xrotation Yrotation
						JOINT RightElbow
						{
OFFSET 0 -5.133040 0.000000
CHANNELS 3 Zrotation Xrotation Yrotation
							JOINT RightWrist
							{
OFFSET 0 -2.743050 0.000000
CHANNELS 3 Zrotation Xrotation Yrotation
								JOINT rhand
								{
									OFFSET 0 0 0
CHANNELS 3 Zrotation Xrotation Yrotation
									JOINT RFingers
									{
OFFSET 0 -0.767980 0.000000
CHANNELS 3 Zrotation Xrotation Yrotation
										End Site
										{
OFFSET 0 -0.619160 0.000000
										}
									}
								}
								JOINT RThumb
								{
OFFSET 0 0.000000 0.000000
CHANNELS 3 Zrotation Xrotation Yrotation
									End Site
									{
OFFSET 0 -0.628620 0.628620
									}
								}
							}
						}
					}
				}
			}
		}
	}
}
MOTION
Frames: 8
Frame Time: 0.008333333333333333
-0.027028 16.883921 -0.261953 -4.068733 4.123509 -4.797115 0.000000 0.000000 0.000000 -14.224621 -11.306558 -3.769707 3.448339 11.387750 33.598878 1.443193 -5.580643 -21.572089 1.254340 -7.100157 -20.012422 0.000000 0.000000 0.000000 24.622390 2.306569 -1.056505 -2.158203 -9.188023 26.385384 -1.259274 -4.003842 -22.983004 -0.541376 4.714090 -13.094805 -2.460079 0.223561 1.249681 -2.225372 0.225249 -0.658567 -0.907720 0.124951 -1.376584 -23.900886 -14.480622 1.117124 22.488298 -24.289654 19.963215 8.852491 -11.911812 12.372967 0.000000 0.000000 0.000000 3.438640 -50.631071 -4.608337 160.513563 -30.018588 114.727955 15.742058 -70.458477 -27.288222 0.000000 0.000000 0.000000 -7.125000 0.000000 0.000000 -16.086644 57.438594 4.986936 0.000000 0.000000 0.000000 -1.923138 0.577046 16.809786 -12.518747 -20.577821 -2.281494 -11.827943 29.639976 -13.933946 0.000000 0.000000 0.000000 7.125000 0.000000 0.000000 10.654349 15.915295 7.455992
0.039995 16.965631 -0.427010 -2.940601 5.955418 -2.506470 0.000000 0.000000 0.000000 -15.416438 -13.633633 -5.937081 3.179330 10.979780 32.211810 1.245306 -5.080620 -20.028109 1.196372 -6.940104 -19.538166 0.000000 0.000000 0.000000 22.996033 3.067181 -3.842870 -2.147107 -9.166068 26.316204 -1.133432 -5.164583 -22.593930 -0.527349 4.651184 -12.916592 -2.249253 0.034752 2.571371 -0.747820 -0.026099 0.278688 0.495459 -0.003951 -1.155090 -22.788572 -14.741792 -2.412625 22.802986 -23.317691 16.905935 8.612250 -11.097778 11.504161 0.000000 0.000000 0.000000 -1.708551 -27.147372 -23.642940 154.361494 -36.848321 111.329476 10.261344 -56.696936 -26.305503 0.000000 0.000000 0.000000 -7.125000 0.000000 0.000000 -21.044042 55.389499 5.545565 0.000000 0.000000 0.000000 -4.951186 4.360833 32.927197 -27.503197 -38.647991 -9.814438 -9.899042 5.944824 -13.425314 0.000000 0.000000 0.000000 7.125000 0.000000 0.000000 11.980171 16.544349 8.256970
0.160812 17.087250 -0.471168 -0.290980 1.833663 -0.855476 0.000000 0.000000 0.000000 -18.906265 -12.704729 -4.385400 2.345376 9.551183 27.535096 1.070514 -1.259186 -19.178570 0.880808 -5.981481 -16.731050 0.000000 0.000000 0.000000 19.639261 6.568377 -4.300869 -1.993866 -8.853243 25.337423 -1.026171 -4.452695 -21.234118 -0.572972 4.847125 -13.473212 -0.849671 -0.884492 2.424090 0.016511 -1.203188 -0.044923 0.535930 -0.595098 -1.386583 -19.557411 -12.065674 -8.447264 16.915398 -17.631063 20.385586 6.813067 -8.243010 11.343720 0.000000 0.000000 0.000000 -9.772333 -17.366086 -72.094550 146.111291 -44.001844 105.964128 7.763593 -23.199219 -24.310614 0.000000 0.000000 0.000000 -7.125000 0.000000 0.000000 -22.294796 53.077691 4.612674 0.000000 0.000000 0.000000 1.876725 -6.791225 57.036335 -82.831661 -59.800594 -53.796361 -13.413702 -9.942624 -16.284222 0.000000 0.000000 0.000000 7.125000 0.000000 0.000000 9.571620 13.431966 7.189907
0.178344 17.202747 -0.149732 -1.369206 8.153553 0.308072 0.000000 0.000000 0.000000 -17.865216 -16.350910 -2.726970 1.905575 8.666403 24.757314 0.953818 -2.527858 -17.782681 1.004064 -6.376066 -17.879502 0.000000 0.000000 0.000000 21.642870 5.256535 0.158777 -1.073457 -6.585947 18.494465 -0.483743 -10.606158 -20.959415 -0.594858 4.937106 -13.729304 -1.512789 -2.735533 -0.425118 0.954146 -3.643894 -1.606094 1.843142 -1.797372 -1.251597 -19.934599 -12.494630 -10.583630 17.238814 -18.217883 22.124261 6.832856 -8.372742 12.658191 0.000000 0.000000 0.000000 5.290140 -8.726304 -54.791022 144.643629 -45.063827 104.934547 7.023659 -21.616700 -18.341364 0.000000 0.000000 0.000000 -7.125000 0.000000 0.000000 -20.084243 47.396113 1.234098 0.000000 0.000000 0.000000 -5.030344 7.849290 37.670092 -140.019715 -48.058125 -101.575387 -16.420687 -17.627060 -15.882126 0.000000 0.000000 0.000000 7.125000 0.000000 0.000000 7.555688 13.562358 5.624169
0.205508 17.237563 0.065295 -0.480794 8.248680 -0.573955 0.000000 0.000000 0.000000 -19.807297 -16.687591 1.855727 1.410319 7.511253 21.239099 0.891624 -0.630756 -17.648519 1.024936 -6.440155 -18.067090 0.000000 0.000000 0.000000 21.264207 5.700295 4.461174 -0.733944 -5.472804 15.262284 -0.255944 -12.643615 -20.907445 -0.485176 4.466326 -12.392490 -1.959049 -2.084762 -2.379402 -0.468738 -2.752625 -2.471515 0.577169 -1.350313 -1.131920 -20.293026 -13.218165 -9.500871 16.179731 -19.423211 23.667992 6.295619 -9.091942 13.239163 0.000000 0.000000 0.000000 6.823198 -17.046845 -50.787324 141.066331 -47.424150 102.349718 9.160433 -20.169410 -18.492513 0.000000 0.000000 0.000000 -7.125000 0.000000 0.000000 -18.200382 47.829138 1.309062 0.000000 0.000000 0.000000 -7.293103 11.939084 40.810967 -140.349849 -47.860212 -101.820230 -16.509204 -21.888369 -14.929437 0.000000 0.000000 0.000000 7.125000 0.000000 0.000000 7.476560 14.531467 5.408891
0.248232 17.271679 0.157760 -0.133094 4.949788 0.567755 0.000000 0.000000 0.000000 -20.412484 -16.149919 2.582475 1.169194 6.863660 19.311999 0.852405 1.890971 -18.222155 0.871881 -5.953434 -16.649344 0.000000 0.000000 0.000000 20.800839 7.297434 4.707798 -0.597902 -4.950107 13.766364 -0.351245 -11.459606 -20.520834 -0.419874 4.158993 -11.524418 -0.324637 -0.928819 -3.719249 -0.663643 -1.235332 -3.853608 -0.523624 -0.617972 -1.879012 -20.073212 -12.825398 -12.167724 14.892432 -17.571674 21.382070 5.942019 -8.225771 12.265186 0.000000 0.000000 0.000000 5.933867 -12.491805 -51.045427 141.795637 -46.969353 102.885184 9.447912 -19.225061 -16.752212 0.000000 0.000000 0.000000 -7.125000 0.000000 0.000000 -17.280792 46.198409 0.526513 0.000000 0.000000 0.000000 -9.346307 8.431538 41.009563 -141.784333 -46.976456 -102.876915 -18.866364 -20.127884 -12.989885 0.000000 0.000000 0.000000 7.125000 0.000000 0.000000 5.824845 16.325535 3.973524
0.226774 17.273851 0.108074 0.232183 4.022977 0.320721 0.000000 0.000000 0.000000 -20.692383 -15.253396 2.677485 1.127479 6.744398 18.960355 0.838160 2.098574 -18.175127 0.836922 -5.833969 -16.303919 0.000000 0.000000 0.000000 20.538606 9.246984 4.880797 -0.677425 -5.262653 14.659221 -0.242222 -12.424638 -20.496188 -0.534382 4.683251 -13.007574 0.080324 -0.522812 -3.049234 -0.556379 -0.700553 -2.781961 -0.628810 -0.356269 -1.150162 -19.941135 -12.118760 -12.327633 15.215524 -16.440843 20.357292 6.259687 -7.669054 11.690813 0.000000 0.000000 0.000000 3.975154 -10.884875 -53.047513 140.536888 -47.748566 101.959164 7.225245 -19.271957 -15.347918 0.000000 0.000000 0.000000 -7.125000 0.000000 0.000000 -18.764400 44.589532 -0.197155 0.000000 0.000000 0.000000 -9.229002 3.548025 43.080272 -140.709502 -47.641759 -102.086177 -21.758463 -13.691740 -14.764618 0.000000 0.000000 0.000000 7.125000 0.000000 0.000000 3.912584 14.163406 2.843672
0.286069 17.293336 -0.303494 0.917734 5.269238 3.075913 0.000000 0.000000 0.000000 -20.041093 -15.495616 -4.147245 1.403712 7.494431 21.188656 0.722150 -0.343563 -15.946261 0.909042 -6.074749 -17.001791 0.000000 0.000000 0.000000 18.449060 9.862964 -2.474309 -1.156739 -6.828159 19.207373 -0.363095 -11.296790 -20.463532 -0.558007 4.784476 -13.294928 1.346183 -1.262036 0.681987 1.462151 -1.658616 -0.343171 0.764004 -0.831772 -0.728244 -18.494219 -10.654171 -14.861482 13.462849 -12.971330 14.558188 5.834720 -6.001137 9.144583 0.000000 0.000000 0.000000 2.672862 -8.781564 -64.149751 67.708303 -57.961868 40.835604 7.062612 -5.312829 -17.762787 0.000000 0.000000 0.000000 -7.125000 0.000000 0.000000 -19.814185 46.855756 0.944093 0.000000 0.000000 0.000000 -7.528944 7.196387 34.973362 -127.367089 -53.991451 -91.706031 -8.327005 -12.486653 -12.079607 0.000000 0.000000 0.000000 7.125000 0.000000 0.000000 13.114043 17.954976 8.662990
